<svg id="clarity" xmlns="http://www.w3.org/2000/svg" width="286" height="70" viewBox="0 0 286 70">
  <g id="Artboard" transform="translate(-279 -209)">
    <g id="Group-2" transform="translate(279 209)">
      <path id="clarity-2" data-name="clarity" d="M75,38.766a21.549,21.549,0,0,1,1.294-7.495,17.565,17.565,0,0,1,9.689-10.284,19.68,19.68,0,0,1,7.975-1.534,25.826,25.826,0,0,1,5.387.523,26.287,26.287,0,0,1,4.757,1.5l-2.169,8.3a26.34,26.34,0,0,0-3.218-.976,16.875,16.875,0,0,0-3.918-.418q-4.617,0-6.891,2.858a11.741,11.741,0,0,0-2.274,7.53q0,4.95,2.134,7.669t7.451,2.719a25.651,25.651,0,0,0,4.058-.349,17.3,17.3,0,0,0,3.988-1.116l1.469,8.506a24.519,24.519,0,0,1-4.547,1.325,30.1,30.1,0,0,1-6.017.558,22.716,22.716,0,0,1-8.675-1.5A16.344,16.344,0,0,1,79.512,52.5a15.9,15.9,0,0,1-3.428-6.1A25.82,25.82,0,0,1,75,38.766ZM126.421,57.8a26.127,26.127,0,0,1-7.381-.976,10.942,10.942,0,0,1-4.477-2.545,8.435,8.435,0,0,1-2.239-3.974,21.372,21.372,0,0,1-.595-5.264V4.673L122.153,3V42.949a13.641,13.641,0,0,0,.21,2.51,4.323,4.323,0,0,0,.8,1.882,4.269,4.269,0,0,0,1.714,1.255,9.421,9.421,0,0,0,3.008.627ZM147.9,49.851q1.539,0,2.938-.07a20.512,20.512,0,0,0,2.239-.209V41.694q-.63-.139-1.889-.279a21.109,21.109,0,0,0-2.309-.139,20.731,20.731,0,0,0-2.763.174,7.238,7.238,0,0,0-2.274.662,3.9,3.9,0,0,0-1.539,1.325,3.681,3.681,0,0,0-.56,2.092,3.559,3.559,0,0,0,1.644,3.381A9.112,9.112,0,0,0,147.9,49.851Zm-.84-30.4a24.218,24.218,0,0,1,7.7,1.046,11.958,11.958,0,0,1,4.932,3,11.008,11.008,0,0,1,2.624,4.741,23.308,23.308,0,0,1,.77,6.2V56.056q-2.239.488-6.226,1.15a60.034,60.034,0,0,1-9.655.662,30.711,30.711,0,0,1-6.471-.627,14.071,14.071,0,0,1-5-2.057,9.421,9.421,0,0,1-3.218-3.73,12.836,12.836,0,0,1-1.119-5.647,10.672,10.672,0,0,1,1.294-5.438,9.942,9.942,0,0,1,3.463-3.556,15.681,15.681,0,0,1,4.967-1.917,27.958,27.958,0,0,1,5.807-.593,33.079,33.079,0,0,1,3.6.174,16.087,16.087,0,0,1,2.554.453v-.976a5.738,5.738,0,0,0-1.609-4.253q-1.609-1.6-5.6-1.6a35.759,35.759,0,0,0-5.247.383,22.573,22.573,0,0,0-4.477,1.081L134.816,21.2q.909-.279,2.274-.593t2.973-.558q1.609-.244,3.393-.418T147.059,19.454ZM194.7,29.633q-1.4-.349-3.288-.732a20.386,20.386,0,0,0-4.058-.383,18.891,18.891,0,0,0-2.344.174,13.836,13.836,0,0,0-2.064.383V57.1H172.525V22.382a62.786,62.786,0,0,1,6.611-1.848,38.221,38.221,0,0,1,8.5-.871q.84,0,2.029.1t2.379.279q1.189.174,2.379.418a11.221,11.221,0,0,1,2.029.593ZM212.472,57.1H202.048V20.43h10.424Zm.979-47.27a5.692,5.692,0,0,1-1.854,4.5,6.654,6.654,0,0,1-8.745,0A5.692,5.692,0,0,1,201,9.832a5.692,5.692,0,0,1,1.854-4.5,6.654,6.654,0,0,1,8.745,0A5.692,5.692,0,0,1,213.451,9.832Zm8.465,1.464,10.424-1.673V20.43h12.523v8.645H232.341v12.9a10.232,10.232,0,0,0,1.154,5.229q1.154,1.952,4.652,1.952a19.984,19.984,0,0,0,3.463-.314,17.9,17.9,0,0,0,3.253-.871l1.469,8.087a29.732,29.732,0,0,1-4.2,1.325,24.54,24.54,0,0,1-5.667.558,18.713,18.713,0,0,1-7.066-1.15,11.083,11.083,0,0,1-4.477-3.207,11.92,11.92,0,0,1-2.344-4.985,29.33,29.33,0,0,1-.665-6.484ZM286,20.43q-3.148,10.6-6.576,19.87t-7.486,17.988A40.689,40.689,0,0,1,269,63.621a16.419,16.419,0,0,1-3.218,3.625,11.34,11.34,0,0,1-3.953,2.092,17.927,17.927,0,0,1-5.142.662,21.047,21.047,0,0,1-4.512-.453,20.075,20.075,0,0,1-3.393-1.011l1.819-8.3a17.826,17.826,0,0,0,2.868.767,16.219,16.219,0,0,0,2.658.209,5.834,5.834,0,0,0,4.3-1.5,12.037,12.037,0,0,0,2.554-4.148q-3.568-6.972-7.136-15.652a194.654,194.654,0,0,1-6.716-19.486h11.054q.7,2.719,1.644,5.891t1.994,6.414q1.049,3.242,2.134,6.31t2.064,5.578q.909-2.51,1.889-5.578t1.924-6.31q.944-3.242,1.819-6.414t1.574-5.891Z" fill="#eafd89"/>
      <g id="Group">
        <path id="Fill-57" d="M33.477,29.138,0,38.853,27.939,59.7l33.478-9.716L33.477,29.138" fill="#ffd37c" fill-rule="evenodd"/>
        <g id="Group-60" transform="translate(2.904 26.39)">
          <path id="Fill-58" d="M23.969,26.82.195,1.327,11.185.19,24.077,20.248l34.217,2.61.349.374L23.969,26.82" fill="#ff9b6d" fill-rule="evenodd"/>
        </g>
        <path id="Fill-61" d="M42.891,19.965,8.134,17.314,26.981,46.639l34.757,2.651L42.891,19.965" fill="#ffd37c" fill-rule="evenodd"/>
        <g id="Group-64" transform="translate(14.904 7.891)">
          <path id="Fill-62" d="M47.083,41.106l-.525-.137-33.2-8.67L.039.084l10.69,2.791,5.033,23.307L46.888,40.633l.195.472" fill="#ff9b6d" fill-rule="evenodd"/>
        </g>
        <path id="Fill-65" d="M54.925,14.679,23.309,0l7.358,34.073L62.284,48.752,54.925,14.679" fill="#ffd37c" fill-rule="evenodd"/>
      </g>
    </g>
  </g>
</svg>
